<?xml version="1.0" standalone="no"?>
<!DOCTYPE svg PUBLIC "-//W3C//DTD SVG 20010904//EN"
 "http://www.w3.org/TR/2001/REC-SVG-20010904/DTD/svg10.dtd">
<svg version="1.0" xmlns="http://www.w3.org/2000/svg"
 width="980.000000pt" height="980.000000pt" viewBox="0 0 980.000000 980.000000"
 preserveAspectRatio="xMidYMid meet">
<metadata>
Created by potrace 1.11, written by Peter Selinger 2001-2013
</metadata>
<g transform="translate(0.000000,980.000000) scale(0.100000,-0.100000)"
fill="#000000" stroke="none">
<path d="M4490 9789 c-1475 -133 -2789 -905 -3642 -2139 -36 -52 -111 -170
-165 -262 -364 -609 -587 -1280 -665 -2003 -17 -162 -17 -808 0 -970 123
-1140 615 -2168 1422 -2975 838 -839 1931 -1343 3100 -1431 202 -15 718 -6
900 15 895 107 1703 433 2420 977 920 698 1587 1735 1829 2846 87 400 106 587
106 1053 0 403 -7 504 -56 795 -239 1425 -1096 2673 -2351 3422 -595 356
-1238 573 -1948 659 -160 19 -784 28 -950 13z m736 -409 c981 -77 1872 -447
2610 -1083 130 -112 372 -356 479 -482 586 -689 944 -1516 1051 -2425 25 -213
30 -628 10 -853 -48 -555 -195 -1086 -434 -1572 -238 -482 -522 -871 -918
-1254 l-159 -154 -7 99 c-35 456 -125 787 -317 1160 -238 462 -588 852 -1031
1149 -231 155 -464 270 -720 356 l-127 43 95 43 c388 174 697 480 891 883 397
822 192 1806 -494 2379 -899 750 -2243 553 -2888 -424 -289 -439 -389 -1001
-268 -1509 87 -363 293 -721 567 -986 155 -149 316 -264 483 -344 l90 -42
-107 -33 c-564 -173 -1079 -522 -1453 -986 -386 -478 -595 -1032 -637 -1680
l-7 -110 -178 175 c-397 388 -673 769 -906 1252 -310 641 -453 1295 -438 2008
6 278 21 440 62 680 193 1114 807 2119 1715 2809 655 498 1477 820 2270 890
69 6 141 13 160 15 86 8 489 5 606 -4z"/>
</g>
</svg>
